<?xml version="1.0" encoding="UTF-8"?>
<svg id="Calque_1" xmlns="http://www.w3.org/2000/svg" version="1.1" viewBox="0 0 1100 858">
  <!-- Generator: Adobe Illustrator 30.2.1, SVG Export Plug-In . SVG Version: 2.1.1 Build 1)  -->
  <g>
    <path d="M1012,239.4l10,2.9v316.8s-307.7,232-307.7,232l-5.9-1.4-58.2-17.9-13.7-4.2-13-4-14.5-4.4-13-4-29.9-9.2-26-8-29.9-9.2-15.2-4.7-42.8-13.1-20.6-6.3-15.2-4.7-33.8-10.4-14.5-4.5-11.5-3.5-13.8-4.2-14.4-4.4-12.2-3.7-13.1-4-33-10.1-9.9-3-42.8-13.2-15.2-4.7-13.8-4.2-16.2-5-36.6-11.2-33-10.2-10-3.1-11.6-3.5c-.5,0-1.8.5-1.8-1.8,0-95.2,0-200.1,0-298.9L395.8,67.2l13.3,3.7,22.7,6.4,9.3,2.6,9.5,2.7,7,2,7.7,2.2,9.5,2.6,7,2,70.9,19.8,15.8,4.4,7.7,2.2,18,5,18,5,32.7,9.2,17.3,4.8,25.7,7.2,14.9,4.2,7,2,11.6,3.3,13.4,3.7,42.1,11.7,7.9,2.2,15.6,4.4,8.5,2.4,18.8,5.3,21.1,5.9,21.9,6.1,7.1,2,35.9,10,7,2,21.1,5.9,24.2,6.8,6.3,1.7,24.2,6.8,15.2,4.3ZM623,761.5l14.1,4.3,13.8,4.2,58.2,17.8c1.4.9,4.2,1.5,5.6.4l305.3-230.2V243.6s-12.9-3.6-12.9-3.6l-11.1-3.1-5.4-1.5-7-2-19.6-5.5-21.1-5.9-24.3-6.8-43.7-12.2-25-7-5.5-1.6-45.9-12.8-21.3-6-70.9-19.8-17.3-4.8-25-7-18.8-5.2-23.5-6.6-6.3-1.8-7.7-2.2-9.5-2.7-10.1-2.8-16.4-4.6-15.6-4.4-7.2-2-67.8-18.9-8-2.2-34.2-9.6-8.7-2.4-33.8-9.5L81,297.3v297.5s12.2,3.9,12.2,3.9l58.1,17.8,19.1,5.9,6.9,2.1,13.7,4.2,11.5,3.5,14.5,4.5,13.7,4.2,21.5,6.6,8.5,2.6,9,2.8,33,10.2,13.7,4.2,13,4,6.8,2.1,7.6,2.3,11.5,3.5,13,4,15.2,4.7,33.8,10.4,12.9,4,19.8,6.1,7,2.1,13.7,4.2,23.9,7.3,14.4,4.4,13.7,4.2,13.1,4,4.7,1.4,17.5,5.4,10,3.1,27.6,8.5,13.7,4.2,13.3,4.1Z"/>
    <path d="M803.5,650.1c-1.5-.6-2.6-1-3.3-1.1l-5.5-.7c4.8-4,7.7-6.7,11.3-11l-6.5-1,9.3-10.1-4.8-1.3,6.8-9.2-2.6-1.1,4.3-7.8.8-1.4c.1-.2.6.8.8,1.1l4.5,7.8-2,1.9,2.9,4c3.7-3.5,6.2-6.1,9.5-10.2l-5.3-.6,7.1-9.1-2-2,5.3-10.1c1.2,3.4,2.7,6.6,4.8,10.3l-2.3,1.2,6.9,9.4-4.6.7c2,2.9,4.4,5.7,7.6,8.9l5.2-5.9-5.1-.8,7.3-7.9-3.5-1.4,5-6.9-1.5-1.5,3.6-6.9,1.1.6,2.7,5.8c.2.5-.8,2.6-.5,3l4.4,5.7-3.4,1.6,6.7,7.5-4.1.9c-.4.5,2.1,3.9,3.4,3.1l26.5-17.7,27.8.5-56.7,43.3-4,3.1-25.6,19.3-13.8,10.3-4.2,3-105.6,76.7-469.7-138.5-68.9-20.3c-1-.6-2.1-1.3-1.4-1.1l81.4.5c5.8,0,12.4-1.1,18.3.5l451.5,118.1.3-30.1h-7.1c-.4,0-2-.3-1.8-.6s.6-1.1.8-1.4l27.1-36.5c.7.4,2.2,1.7,2.8,2.5l10.7,14.7,1.4.7.7-13.7c0-1.3-1-3.5-2.2-5l17.4-30.5c.5-.9,1.3-3.3,1.3-4.1v-7c-.1-.4-1.5-.7-2-.9-1.1-.5-2.3-1.1-1.6-.7l2.9-.7c.6-.1.4-1.3.5-2.9l1.2-.4.2,3c0,.6,1.4.4,3,.3.6.5,1.7,1.4,1.3,1.1l-4.5.5v9.7c.1,0,18.3,31.8,18.3,31.8,1.5,2.6-1.9.4-1.7,6.1l.5,9.3,10.2-8ZM825.8,622.1c.2-.2-.1-1.6-.4-1.5l-1.6.2c-.8.1-3,1-3,1.1,1.6,1.6,2.3,2.6,2.7,2.3l2.2-2.1ZM850,622.3h-7c0-.1,3.1,4.1,3.1,4.1l3.9-4.1ZM403.5,644.7c2.7-2.1,3.4-6.8,0-8.2-2-.8-4.1-1.4-6.7-2.2l-5,16.9c2.8,1.1,6.4,2.3,8.9,1.8,4-.8,4-5.5,2.8-8.2ZM418.1,657.6l4.1-14.2c0-.3-.5-1.9-.6-2.2s-1.6.6-1.7,1l-4.1,14.3c0,.3.5,1.8.6,2.1s1.7-.7,1.7-1ZM439.9,654.2l7.4-5.2c-1.9-.6-3.5-.8-4.4-.2l-5.9,3.8.7-5.6c0-.6-1.7-1.5-1.9-1s-.8,1.6-.9,2l-3.8,13.7c-.1.5,1.8,1.5,2,1l.7-2c.6-1.6,1.6-3,3.3-4.8l2.3,8c.2.8,2.2,1.8,3,1.6l-2.5-11.2ZM464.4,663.9c.6.1,2.5-1,2.1-1.3s-1-.9-1.3-1l-5.1-1.9c-.8-.3.3-3.5.8-4l7.2,1.7.9-1.7c.2-.3-1.6-1.4-2-1.5l-8.2-2-4.9,16.8,9.6,3.1,2-2.3-8-2.7c0-.7.5-4.4,1.5-4.2l5.4.9ZM780.7,664.8c-.3-3.3-.6-6.5-1-9.2s-3.6-3-4.9-2.6c-4.7,1.3-3.9,7.4-4,11.8h9.9ZM504.1,670.4c.6-.9,3.5-2.2,4.2-1.6,3.4,3.1,3.2,6.1,4.4,3.9,1.1-2.2-.7-7-5-6.7-7.6.5-9.4,9.5-7.5,14.9.7,1.9,4.2,3.5,6.2,3.2,1.7-.3,3.9-2.3,5.3-3.9l-1.3-1.4c-1.2-1.3-.2,1.6-5.8,2.5-1.4.2-4.8-4.2-.6-10.9ZM535.2,688.9c2.9-3.6,3.8-7.7,2.6-11.8-.5-2-3.5-4.2-5.3-4.2s-4.9,1.1-5.9,2.5c-3.9,5.3-3.8,13.4,1.5,15.3s5.7,0,7.1-1.8ZM780.6,686.5l-.6-7.7c0-1.3-1.7-3.3-2.8-3.8s-4.3.1-4.9,1.2c-.9,1.5-1,4.6-1.1,6.3l-.2,4.2,9.6-.3ZM559.3,697.5c0,.4.2,1.8.2,2.1s1.8-.6,1.9-1l4.3-15.2-2.2-1.4c-.3-.2-1.2.8-1.4,1.2l-5,7.9c-.2.4-1.5,1.5-1.6,1.6v-10.6c0-.9-.7-2.3-1.1-2.8s-2.4.5-2.5,1l-4.1,14.3c-.1.4,1.2,2.6,1.4,2.2s.7-1.3.8-1.6l2.6-7.3.6,8.2c0,.7.6,2.5,1,2.1s1.5-1,1.7-1.3l4.7-6.8-1.5,7.5ZM587,698l-1.7,8c0,.4,2.1,1.2,2.2.9l4.2-13.9c.2-.7,0-2.2-.3-2.8s-2.5.1-2.9.7l-6.2,9.3-.6-10.1c0-1.1-.2-2.1-.3-2.7s-2.9-.3-3.1.3l-4.3,15.1c-.1.4,1.4,1.9,1.5,1.6s.8-1.2.9-1.5l2.6-7.5c.7-1.1.9-1.5.2-.3l.3,7.9c0,.7.6,1.9,1.5,3.4l6-8.3ZM749.1,696.2l-.3-6.2h-10.9s.2,13.5.2,13.5l11-7.3ZM613.2,698.3l-2.7,9.6c-.3,1.2-2.9,2.8-4.1,2.5s-2.6-3-2.3-4.2l2.8-10.1c.2-.6-1.3-2.5-1.5-2s-.9,1.4-1.1,1.7l-2.4,8.2c-.5,1.6-.3,5,.4,6.8.7,1.7,5,2.8,6.7,2.2s3.5-3,4-4.7l3.1-11.2c-.9-.1-2.8.5-3,1.2ZM636.1,719.8l4.2-15-2.3-.5-3.4,10-2.9-11.8c-.1-.6-2.5-1.5-2.7-.9l-4.4,15,.4,1.5c0,.3,1.8-.3,1.9-.5l3.2-9,3.4,11.8c.2.7,2.5.2,2.7-.6ZM652,723.3l3.8-13.1c.1-.4-.8-2.4-1.1-2.1s-1.2.9-1.3,1.3l-4,13.5c-.2.7.5,2.4,1.1,2.6s1.3-1.1,1.6-2.3ZM670.1,730l3.6-12.2c.5-1.6,6.2.7,5.2-1.3s-1.2-1.7-1.7-1.9l-8.2-2.3c-.5-.1-2.3,1-1.9,1.3l1.8,1.4c.4.3,2.2,1.7,2.1,2.2l-3,10.6c-.1.4-.2,2.2-.2,2.6s2,0,2.2-.4ZM700.6,723.3c.3-.3.4-2.1,0-2s-1.8.3-2.1.5l-5,4.7-1.8-6.5c-.2-.8-2.7-2-2.6-1.2l1.7,10.1c.3,1.7-3.1,11.9-.1,8.3s1.7-5.5,3.4-7.3l6.4-6.6Z"/>
    <path d="M413.1,150.6l-31.4-8.2-35.7,26.6c-8.2,6.1-11.7,16.9-19,24.3l-15.4-1.5-63.5,39.2-39.4,23.8-25.1.2v-1.4c0,0,212.6-151.2,212.6-151.2l532.7,147.1,15.3,4.2,2.2.6c.3-.3,0,0-.7.6h-134s-124.9-32.7-124.9-32.7l-35.5,2.4-18-16.4-110.5-28.9-68,4.4-39-31.8-3-1.5ZM433.1,136.9l3.5-13.5c.1-.5-1.9-1.7-2.1-1.2l-.7,1.9-1.6,4.4-5.9-1.9,1.6-6.5c-1-.1-2.3-.5-2.5,0s-.4,1.2-.7,2.1l-3.5,12.9c-.1.5.6,2.5,1,2.2s1.3-1,1.4-1.4l1.8-6.1,6.1,1.6-1.6,6.7c-.2.6,1.8,1.6,2.1,1s.7-1.6.9-2.1ZM455.3,145.7c.2-.3.9-1.7.8-2.1l-1-15.2c0-.4-1.3-1.9-1.7-1.7s-1.5.9-1.8,1.3l-8.6,13.6c-.3.5,2.1,1.6,2.3,1.1l.9-1.8c.6-1.3,3.4-2.5,5-1.7,3,1.3,2.2,9.7,3.8,6.5ZM479.5,135.9l-2.8,9.8c-.3,1.2-3,2.6-4,2.1s-2.4-2.3-2.2-3.2l2.5-10.4c.1-.4-.4-2-.5-2.5s-1.8.9-1.9,1.4l-2.6,10.7c-.9,3.7,1.6,6.5,5.2,6.9s5.2-1.4,5.8-3.6l3.1-10.9c.2-.7-1.3-3-1.6-2.5s-.9,1.7-1,2.1ZM497,154.9l2.9-10.9c.1-.4.6-1.4.9-1.4h1.6s2.6,0,2.6,0c.4,0-.1-2.1-.5-2.2l-9.2-2.5c-.4-.1-2,1.3-1.7,1.5l1.5,1c.6.4,2.3,2,2.2,2.7l-3,11.7c0,.4.9,1.4,1.2,1.6s1.4-1.2,1.5-1.6ZM523.4,155.7c.6.1,1.7-2,1.3-2.1l-1.8-.6-5-1.6,1.1-4.1c2.1.4,5.4,1.2,6.9,1.5s1.6-1.9,1.1-2.1-1.6-.8-2-.9l-8-2.1-4.5,17.1,8.8,2.6c.7.2,2.2-.7,2.5-1.3s-1.1-1.2-1.7-1.4l-6.4-1.9,1.6-4.6,6.2,1.4ZM557.4,171.6l3.2-11.9c.1-.5,1.9-1,2.4-1h2.7c.6,0-.5-2.2-1.1-2.3l-7.9-2c-.5-.1-1.8,0-2.3.2s-.3,1.6,0,1.7l1.7.6c.5.2,2,1.7,1.8,2.4l-3,11.5c0,.4.4,1.8.4,2.1s1.8-.8,1.9-1.2ZM580.9,174l.4,4.9c0,.4,1.9,1.3,2,.8s.4-1.6.4-1.9l-.9-14.8c0-.6-1.2-2.5-1.7-2.2s-1.6.9-1.8,1.2l-8.1,12.7c-.3.4-.2,2.4.2,2.2s1.6-.4,1.8-.7l2.6-3.4,4.9,1.1ZM604,185.1c0,.4,2.2,1,2.3.7l.2-1.5-1.4-6.6c2.1-1.5,3.6-2.9,4-4.2.4-1.3-.7-5-2-5.4-2.2-.8-5.6-1.6-8.4-2.3l-4.3,15.9c-.3,1,2.1,1.6,2.3.9l2.2-6.2c1.2.4,3.4,1.8,3.7,2.7l1.5,6ZM628.6,184.1c.6.1,3-1.1,2.6-1.4s-1.6-1-2.3-1.3l-5.3-1.9c.7-1.7,1.6-3.8,2.3-3.6l5.1,1.2c.6.2,2.7-.9,2.2-1.4s-1.2-1.1-1.7-1.2l-8.1-2.2c-.3.5-1,1.8-1.1,2.3l-3.8,14.7,9.2,2.9c.4.1,2.6-1.2,2.2-1.5-2.8-2.4-3-1.3-7.9-3.2l1-4.6,5.6,1.3ZM653,198.2l4.2-14.7c.1-.4-.5-2-.6-2.4s-1.4.8-1.6,1.3l-3,9-3.2-11.3c-.2-.6-2.6-1.1-2.8-.5l-4.3,15.7,2.3.4,3.3-9.9,2.8,10.4c.3,1,2.6,3,2.9,2ZM675.4,190.1c.1-.5,2-.4,3.4-.1,0,0,.8-.9,1.8-2.2l-9.3-2.7c-.7-.2-2.9.9-2.4,1.3s1.1,1,1.5,1.2l2.5,1.5-3.2,12.1.2,2.2c0,.5,2.1-.8,2.3-1.4l3.3-11.6ZM695.3,204.7l.7,5.5,1.8-.2c.3,0,.5-1.7.5-2.1l-.8-13.8c0-.8-1.2-2.8-1.8-2.5s-1.5.8-1.8,1.2l-8.1,12.7c-.3.5-.3,2.2.2,2.1s1.5,0,1.7-.3l2.8-3.7,4.8,1.2ZM712.1,212.2l3.9-15.2c-.9,0-2.8.5-3,1.3l-4,15.1c1,.4,1.9.9,2.1.6l.9-1.7ZM728.8,219.3c3,1.2,6.3,0,7.5-2.6,2.1-4.6-2-6.6-5.8-9.9-.6-.6,1.3-2.9,2.1-2.7s2.2.9,2.6,1.6l2.1,3.3c1.9-2.4.8-5.8-2.6-7s-5.2.2-6.1,1.6-1,5.3.2,6.2l4.2,3.2c.5.4,1,1.7,1.1,2.3s-1,1.3-1.4,1.5c-2.2.9-4.8-.8-5-4.1l-2.2-.3c-.6,2.9.5,5.8,3.3,6.9ZM759.1,218.8c.3,0,1.3-2.1,1-2.2l-1.9-.6-5.1-1.7,1.6-4,5.4,1.4c.5.1,2-.2,2.5-.3s-.5-2.1-1-2.2l-9-2.3-4.7,17.1,9.3,2.7c.5.1,2.3-.9,2-1.3s-1-1.2-1.4-1.3l-6.8-2.1,1.6-4.5c1.7.4,5,1,6.5,1.4Z"/>
    <path d="M492.9,278.2c-.1-1.3-2.3-1.6-3.9-1.1l-4.4,54.3h-12.6c0,.1,0,44.5,0,44.5l-54.3,33.2-.2-47.3,7.6-5,6.2-35.7,3.7-46.5h200.6s-4.5,57.3-4.5,57.3h-20.9s0,47.3,0,47.3l-48.3,29.6-3.3,1.7-.7-78.8h-69.2s4.2-53.3,4.2-53.3Z"/>
    <path d="M831.9,379l8-39,4.7-59.6-5-.4-4.7,59-7.4,36.7-40.2,24.5.2-48.3.3-25c0-4.5,1.6-8.3,4.6-11.4l37.1-37.9c1.9-1.5,3.9-2.4,6.5-3.1h90.2s-3.9,57.5-3.9,57.5h-68.4c0,0-5.7,3-5.7,3l-6.3,7v88.7c-.1,0-29.2,27.9-29.2,27.9l-24,9.9-1.6-.5.2-61.8,44.7-27.2Z"/>
    <path d="M558.9,471.8l-.2-55c2.5-2.4,5.5-5,8.5-6.8l42.4-25.9.8,4.1h79.8c0-.1,13.4-12.7,13.4-12.7.8-.7,2.2-2.8,2.8-3.7l-.5-30.1-9.7-9.8-61.3-.2,4.6-57.2h72.5c2.5.2,4.8,1.3,6.4,2.8l11.5,11.5-4.4,52c-1.1,12.7-4.9,24.6-7.2,37.3l-60.8,37.8-34.3,28.5-13.5.2v8.6s-50.9,18.6-50.9,18.6Z"/>
    <path d="M559,529.1c2.7-1.6,6.8-4.7,9.9-5.5l55.5-13.2c1-.9,3.2-2.3,4.5-2.3h68.4c0-.1,13.9-13.9,13.9-13.9l.9-29.4c0-1.5-.9-3.6-1.9-5.6l17.7-6.5,27.5-23.3c2.7,2.3,7.6,5.8,7.6,9.6l.7,39.7-28.9,12-25.8,32.5-54.7,14.3-46.5,27.6c-2.8.4-5.8.7-8.7.8l-40,.8v-37.5Z"/>
    <path d="M725.4,447.8c-4.8,3.6-11.8,3.9-17,6.9-.9.5-3.8.3-4.6-.4l-10.5-9.6-63.3-.2c10.7-8.7,18.9-18.4,30-25.3l61.8-38.3c2.5-13.1,6.4-25.6,7.6-38.8l4.4-49.1,20.6,19.9c2.4,2.3,3.7,5.8,4.2,9.2l.3,21.2v48.4c0,1.2-1.6,3.5-2.2,4.1l-17.2,18.1,12.1,12c-9.2,7.7-16.8,15-26.3,22Z"/>
    <path d="M117,454v-14s27.1,0,27.1,0l26.1-16.9,30.6-8.4,14.8-20.1,10.4-4.6c1.3-.6,4.3-2.1,6-2.1h37.8c0,0,.1-24.2.1-24.2,3.8-3.7,7.2-8.4,11.3-11.5l34.3-25.7,1.8-9.5c1.2-6.2,2.4-12.4,3-18.5l2.1-24.1h27.7c0,0-4,42.5-4,42.5-.4,4.8-2,9.7-3,14.4h-19.3c0,.1,0,20.8,0,20.8-6.6,4.8-14.2,8.7-20.7,14-9.1,7.4-17,15.2-25.8,23.4l-49.5,19.2-16.3,19.7-34.5,8.4-29.8,17.2h-30Z"/>
    <path d="M119.4,514.1l42.4-1.3,3.2-1.4v30c0,0-46.4,1.4-46.4,1.4l.2,3.9,46.3-1.2v20.4s-48,0-48,0v-110s30.9-.1,30.9-.1l17-9.7.2,19.8-11.6,6.9-33.9,1.1c-.5,0-1.8,1.4-1.6,1.6.3.4,1.5,1.4,2.4,1.4l34.1-1.2,10.4-6v37.4c-2,1.9-5,2.7-7.9,2.7l-37.7,1.1c-.9,0-.7,3,0,3Z"/>
    <path d="M143.7,437.9h-26.7c0,0,0-44.3,0-44.3.4,1.3,8.9-6,5.8-5.7l-4,4.4-2-1.1v-51.1c.1,0,.1-3.3.1-3.3v-19.7c-.1-.9.9-3.4,1.5-4l20.1-19.4,26.1-24.7.2,26v5s.2,58,.2,58l-4.8,2.7c-.5,0,.7-.1,1.5-.2l3.3-.5v27.9s60.2.2,60.2.2l-11,5.2-14.4,19.6c-9.7,3.2-20,4.6-29.5,8.7-9.5,4.1-17.3,11.1-26.5,16.3ZM162,299.9l-4,2.2c-.4.2-.4,1.8-.2,2.7l4.2-4.8ZM155.1,306.7l-1.5-1.3c-2,2.4-3.3,3.9-5,6.7l6.4-5.4ZM147.6,314.3l-3.3,1.1-1.2,4,4.6-5ZM142.4,321.9l-1.3-1.9-2.5,4,3.8-2.1ZM136.7,328.8v-3c-.1,0-5,5.3-5,5.3l5-2.3ZM153,365.1l5.1-3c-2.1,0-3.4.5-5.8,1.9-1.7.3-1.5.5.7,1.2ZM149,366.3l-3.6.5c-2,.8-1.7.9.7,1.2l2.9-1.7ZM137,372.1l5.1-3c-2.1,0-3.4.5-5.8,1.9-1.7.3-1.5.5.7,1.2Z"/>
    <polygon points="443.4 472 418.9 499.5 417.8 498 417.5 413.9 471.9 380.7 472 461.6 443.4 472"/>
    <path d="M950,277.4l-5-.7-3.7,55.1-13.9.2,4.1-57.4h56.5c.9,0,1.7.3,1.9.6l.5,56.9h-44.1c0,0,3.7-54.6,3.7-54.6Z"/>
    <path d="M863.6,566.2l-18.7.2c-4.1,0-8.7-1.8-11.5-4.7l-5.8-6.2,49.9-12.6,26-31.4,8.6-3.5h43.8c0,0,13.3,0,13.3,0l-7.8,3.4-25.6,30.9-54.6,14.1c-6.2,1.6-11.4,6.7-17.6,9.8Z"/>
    <path d="M315.5,316.1l-1.8,9.4-33.9,25.3-9.7,9.4v-84.1c-.1-.5.8-1.6,1.7-1.6l48.2.2c-.7,17.1-1.5,25.2-4.6,41.4Z"/>
    <path d="M417.5,357.8l-.4-26.2h-41.1c-.6,0-1.2-2.1-1.1-2.7l3-16,2.7-38.4h51s-3.5,46.3-3.5,46.3l-5.7,33.4-4.9,3.6Z"/>
    <path d="M268.3,444.8h-38.5c-.5,0-1.7-1.3-1.3-1l16.5-21,54.4-22.3,24.1-22.7.3,48.8-53.1,21.1-2.4-2.8Z"/>
    <path d="M270,540.8l-.2-31.7c0-.7,2.6-1.8,3.3-2.5l26-29.1,24.6-8.9-.3,59.5-11.3,11.5-42.1,1.3Z"/>
    <path d="M168.6,444.6c1.7-2.4,8.4-5.9,13-7l30.7-7.3,16.9-20c16.2-6.7,32.5-11.6,48.2-19.1,9.8-6.2,17-16.3,26.4-23.1,6.6-4.8,12.8-8.6,19.8-13l.2,18-25.4,24.6-54.9,22.6-18.2,22.9c-2.5.8-6.4,1.9-9,1.8l-47.5-.3Z"/>
    <polygon points="418.1 542.5 417.8 506.1 420.1 504.2 445.5 475.6 472 466 472 518.1 457.6 521.6 418.1 542.5"/>
    <path d="M567.3,518.9c-2.2.5-4.8,2.4-7.1,3.6l-1.2-.7v-45.7s47.8-17.6,47.8-17.6c.9-.3,2.8-.2,3,0l.2,50.1-42.7,10.2Z"/>
    <polygon points="874.4 537.4 822.3 550.6 806.8 535.3 815.7 532.8 841.5 501.7 848.6 498.9 855.7 506.6 864 507.9 898.5 508.1 874.4 537.4"/>
    <polygon points="666.1 554.8 646.4 566.8 614.9 566.7 656.2 542.1 711.8 527.6 737.9 494.7 763.4 484.3 763.5 499.7 748.8 505.9 722.1 540 666.1 554.8"/>
    <path d="M296.8,474l-26.8,29.9-.2-49.9c0-1.2,1.3-3.5,2.3-3.9l51.5-20.4.2,34.3-27.1,10Z"/>
    <path d="M801.8,530.3l-11.1-11.2c-1.1-1.1-2.8-4.4-2.8-6.1l-.5-17.6,43.7-18.2,10.7-10,.3,23.6c0,.7.8,2.6,1.2,3.6l-5.1,2-26.1,31.3-10.2,2.6Z"/>
    <path d="M944.9,566.4h-64.9c-.4-.8-.7-1.4-.7-1.4,3.3-1.5,4.6-2.3,6.8-2.9l53.6-13.4,25.9-31.3,24.5-9.8.2,14.9-41.8,41.8c-.7.7-2.7,2-3.6,2Z"/>
    <path d="M713.6,566c-19.8.9-37.8.8-56.4.5,3.6-2.3,7.4-6,11.1-6.9l56.9-15.3,26.3-33.9,11.6-5v10.8c-.1,1.7-2.4,4.7-3.8,6.2l-36.8,38.2c-1.6,1.7-6.2,5.3-8.9,5.4Z"/>
    <path d="M371.5,331.5h-25.9c0,0,2.9-16.6,2.9-16.6l3.7-40.3h25.3s-2.6,37.4-2.6,37.4c-.5,6.5-2.1,12.3-3.3,19.5Z"/>
    <path d="M418.9,581.4c-.4.4-1.4-.7-1.4-1.2l.5-33.1,40.7-21.5c3.5-1.8,8.7-2,12.7-3.1.6.8,1.1,5,0,6.1l-36.3,36.3-16.2,16.4Z"/>
    <polygon points="787.3 489.9 787.2 474.5 815.1 463.2 841.6 438.1 841.9 459.8 828.7 472.7 787.3 489.9"/>
    <polygon points="270 581.4 269.8 544.8 307.3 544 270 581.4"/>
    <path d="M399.6,650.5l-4.5-1,1.4-4.8c1.6.4,3.9,1.2,5,2.3s-1.1,3.6-1.9,3.4Z"/>
    <path d="M402.7,639.3c.4.4.3,2.4-.1,2.8s-1.9.9-2.5.6l-2.4-1c-.6-.2.1-2,.5-3.2.4-1.1,3.6,0,4.4.8Z"/>
    <path d="M532.1,687.9c-1.6,1.4-5.4-.6-5.7-2.6-.4-3.1.7-6.6,2.9-8.9s5.4-.2,6,2.2c.8,3-.5,6.8-3.3,9.2Z"/>
    <path d="M603.7,174.7l-4.1-.8,1-5,3.6,1c.8.2,2.1,1.8,2.4,2.6s-1.8,2.5-2.8,2.3Z"/>
    <path d="M453.2,135.6c0,.3-1.5,1.6-1.7,1.3-.4-.3-1.5-1.2-1.3-1.7l2.4-4.3.6,4.7Z"/>
    <path d="M581,169.8c0,.6-2.3,1.5-2.5.9s-.3-1.8,0-2.3l2.1-3.5.4,4.8Z"/>
    <polygon points="695.1 202.1 692 200.5 694.7 196.6 695.1 202.1"/>
  </g>
  <path d="M552.9,622.6s0,0,0-.1c.1-1.4.1-3.1,0-4.5h.1c0,0-.1-.8-.1-.8,0,0,0,0,0-.1v-.7c0,0-.2,0-.2,0-1.1-4.2-3-7.2-5.8-9.3l-.7-.5c-1.3-1-1.3-1-2.4-1.4-.4-.1-1-.4-1.9-.7,0,0-.1,0-.2,0v-.2s0-.6-.5-.7h-.4c0,0-.2.3-.2.3-.1.2-.8.2-1.7,0-1.5-.2-3.7-.4-6.5.6-3.1,1.1-4.3,2-6.5,4.3h-1.3c-.3-.2-.6,0-.9,0l-1.6-1.3c0,0-.1-.1-.2-.2-.3-.3-.7-.8-1.5-.4-.2-.2-.4-.4-.6-.5-.2-.1-.3-.2-.4-.4-.2-.2-.4-.3-.6-.5l-1.2-.8s0,0,.1-.1c.4-.6,1.1-1.8,1.5-2.5l.2-.3-.3-.2c-.3-.2-.4-.3-.6-.7l-.2-.3h-.4c0,0-1.9-1.1-1.9-1.1-.4-.2-.9-.3-1.5-.4-.4,0-.9-.1-1.5-.2l-4.4-1,.4.3s0,0,0,0h0c-.4-.2-1.1-.2-1.3-.2,0,0-.2,0-.3.1v-.2c.2-.2.2-.9-.2-1.1-.2-.2-.5-.3-.8-.5-.4-.2-.8-.5-1.1-.8-.5-.5-1-.9-1.8-1.3-2.2-1-3.2-1.2-3.8-1.1-.5-.3-1.1-.8-1.7-.9h-.3c0,0-.2.1-.2.1,0,0,0,0,0,0-.4-.6-1-.7-1.6-.9-.3,0-.5-.1-.8-.2-.4-.9-1.2-1.4-2.1-1.5l-1.2-1.3h-.2c-.7,0-1.8-1.2-2.1-1.7,0,0,0,0,0,0,0-.2,0-.3,0-.4v-1.5c.1,0,.1,0,.1,0,0,0,0,0,0,0,.2,0,.4-.2.5-.3l.2-.3s0,0,0,0c.1,0,.2,0,.3,0,.6-.1.5-.8.5-1.2,0-.5-.2-1.2.2-2l3.7.3-1.5-1.3c-.3-.6-1-1.1-1.4-1.5,0,0-.1,0-.1-.1,0,0,0,0,0-.1v-.4c-.2-.3-.4-.5-.6-.7,0,0-.1-.1-.2-.2,0-.3-.1-.6-.2-.8-.3-.5-.6-.9-1-1.3-.3-.3-.7-.5-1-.7-.3-.1-.5-.3-.8-.4-.8-.3-1.6-.4-2.4-.4h0c-.7,0-1.4.1-2.1.4-.3.1-.6.3-.8.5,0,0-.2,0-.2.1-.6.3-.7.5-1.2,1.8-.2.5-.2,2.3.1,2.8.2.3.3,1,.2,1.4-.3,0-.7,0-1.2,0-.9,0-1.3.6-1.6,1.1,0,.1-.1.2-.2.3l-1.1.8-2,.6,1.3.6-1.6,1.1-2.1,1.1,1.7,2.4c-.2.4-.1.8,0,1.2,0,.2,0,.4,0,.4-.7,2.4-1.2,4.5-1.1,6.9,0,.2,0,.6-.1.8h-.2s-.1,1.2-.1,1.2l.3.2s0,0,0,0v.8c0,.4,0,1,0,1.3h-.5c0,0,0,.5,0,.5,0,.3,0,.5,0,.7h0c0,.1,0,.1,0,.1v.5c.1.2.1.5.2.7v.5c0,.1,0,.2,0,.3v.2s.2.1.2.1c0,0,0,0,0,0,0,0,0,0-.1.1v.2c-.1,0,0,.2,0,.2.1.3.3.8.3,1.2l.5,4.8c0,0,0,.2,0,.4,0,.4-.1.9.3,1.3.7.6,1.4.4,1.8.3.1,0,.3,0,.3,0,0,0,2.7,2.9,3.7,3l3.1.4c.5,0,.9,0,1.3,0,.2,0,.5,0,.7,0,2.7,0,5,.3,7,1.1.7.3,1.4,1,2.1,1.6.3.3.6.6.8.8l2.4,2.1-.3,3.2c-4.7-2.1-9.7-1.9-14.2.7-.7.4-1.2.7-1.7,1.2-1.3,1.2-2.6,2.6-3.5,4.3,0,.2-.2.3-.3.5-.2.4-.5.9-.7,1.4-1.3,3.4-1.4,7.1-.5,10.4,1.4,4.7,4.3,8.2,8.2,10l-.6.5,6.4.7-.6.3h2.4c0,0,.6,0,.6,0h0c.5,0,1.1,0,1.7-.2h.3c1.3-.3,2.5-.8,3.6-1.3l1.2-.6s0,0,.1,0h.1s0-.2,0-.2c0,0,0,0,0,0,.2-.2.4-.4.7-.6.6-.5,1.3-1.1,1.5-2,0-.4.5-.6.9-.6h.2s.1-.2.1-.2c1.5-2,2.5-4.7,2.9-7.5l.8-.7c1.1,0,1.9-.2,2.8-.7l.4-.2-.2-.4c0-.1-.4-.9-1-1.1,1.2-.5,2.1-1.6,1.8-2.9,0-.2-.1-.3-.2-.5,0,0-.1-.3-.2-.4.6-.5,1.2-1.3,1.8-2,.6-.7,1.1-1.4,1.5-1.6.3-.2.5-.4.7-.5.1-.1.2-.2.4-.3l1.9-1.1c.3-.2.3-.5.2-.9-.2-.5-.6-.4-.7-.4l-2.3.7s0,0,0,0c0,0-.2,0-.3,0,.7-.2,1.4-.5,1.9-.9.5-.4.6-1.6.4-4.3l-.6-6.5-.2-3.2c-.2-2.6-.2-3.5,1.4-6.1.2,0,.5.2.7.4h.1c0,0,1,0,1,0l1,.7c1.2.8,2.4,1.8,3.6,2.9l.2.2c-1.8,4-2,8.6-.5,12.7,1.5,4.2,4.6,7.5,8.7,9.3,7.2,3.1,15.4.3,19.2-6.6.6-1.1,1.1-2.4,1.5-3.6l.2-.5c0,0,.2-.1.2-.2l-.3-.5.3-.3ZM531.5,629.5c0,0-.1,0-.2-.1-4.7-3.5-6.4-9.1-4.4-14.4l1,.8v.2c-.1,0,.2-.1.2-.1l4.7,3.7s0,0,0,0c0,0,0,.1-.1.2-.2.2-.7.9.2,1.5,1,.7,1,1.1,1,1.3,0,.4.2.7.9.9h.3c0,0,.2-.2.2-.2.3-.4.5-.7.8-1,.6-.7,1.1-.6,1.5-.5.1,0,.2,0,.3,0,.2,0,.4,0,.6,0,0,0,.2,0,.2,0l.4.3.2-.6c.2-.5.3-.7.6-1.3l.3-.5h.2c0,0-.1-.2-.1-.2l.3-.4-.4.2h0c-.4-.7-.6-1.1-1.1-1,0,0,0,0,0,0v-.3c.3-.4,0-.6,0-.7-.3-.3-.8-.1-1.6.3,0,0-.1-.1-.2-.1,0,0-.2-.1-.3-.2l-.4-.2-.4.7c0,.1-.1.2-.2.3-.1,0-.2-.1-.3-.2l-.7-.9h-.2c-.3,0-.6-.4-.9-.6-.2-.2-.4-.3-.5-.4-1-.7-2-1.4-3-2.2l-1.3-1.1c-.1-.1-.3-.2-.3-.3.3,0,.3-.3.3-.5h0,0c0,0,0-.1,0-.2,1.8-2.2,4.6-3.6,7.7-3.7,4-.2,8.1,2,10.3,5.5.7,1.2,1.3,2.2,1.6,3.4.9,3.6.2,7.2-1.8,10-3.2,4.4-8.8,5.8-14.1,3.5h-.3c0-.1-.3.2-.3.2h0c0-.6-.4-.8-.7-.9ZM533.5,618v.4c-.1,0-.5-.3-.5-.3v-.4c.3.1.4.2.5.3ZM532.1,616.8h-.3c0-.1,0-.2,0-.2,0,0,.2.1.2.2ZM496.3,650.7c-.1,0-.2.1-.4.2l-.4.2h-.1s-.6.7-.6.7c-.2.3-1.2.5-1.7.4-.8-.2-1.2,0-1.5,0,0,0,0,0,0-.1l-.3-.4-.4.4c-.2.2-.5.2-.8.2l.3-.5-1.2-.4s0-.1,0-.1c0-.1,0-.2,0-.3v-.3c-.1,0-.4,0-.4,0h-.3s-.2.3-.2.3c0,0-.1.2-.2.2,0,0-.1,0-.2,0-.5-.1-1-.2-1.1-.6l-1.1-3.6v3.2c-.8-.6-1.7-1.3-2.3-2.1,0,0,0-.1,0-.2,0-.2-.2-.4-.4-.5-.3-.2-.7-.7-.8-1.1,0,0,0-.1.1-.3h0s0,0,0,0h-.4c0-.1,0-.1,0-.1h.4c0,.1,0,.1,0,.1l-.9-.3s0,0,.2-.1c.1,0,.2,0,.2,0-.5-.4-1.8-3.8-1.4-6.5.4-3.7,2.2-6.8,4.9-8.6,3.7-2.5,8.3-2.7,11.7-.6l-1.1,1.6c-.1.2-.3.4-.5.5-.3.3-.6.6-.7,1-.3.6-.4.8-.9,1.1-.3.2-.6.4-.9.7-.4.4-.9.8-1.3.8-1.7,0-3,.8-3.7,2l-.5.7h0s-.3,2.3-.3,2.3h.8c0,.1,0,.4.4.5h0c0,.2-.2.4,0,.7,0,.1.1.2.2.3,0,0,0,0,0,0l-.2.2v.3c0,.4.4.8.6.9l1.1.6.7.3-.5.5s0,0,0,0h-1.4c0,.1-.1.3-.1.3-.5.7-.3,1.6.5,2.2.4.3,1.3.7,2.1.5.3-.1.6-.3.7-.7.1-.3.1-.7,0-1.3h0s.8-.6.8-.6v-.2c0-.1,0-.4,0-.4,0,0,.3,0,.4,0l.3.3.3-.3c0,0,.5-.5.6-.9.4-1,.7-1.1.8-1.2.3-.2.4-.4.5-.9.1-.2.2-.4.3-.7.2,0,.5-.2.8-.3l.2.7h.2c1.4.5,2.9.5,4.8.2.3,0,.7,0,1,.3-.3,2.9-1.8,5.5-4.1,7.3l-1.6,1.3h0c0,0-.8.3-.8.3ZM495.6,636.9l1.5-2.2-.9,1.7,1.3-.8c0,.1,0,.3,0,.4,0,.2,0,.5,0,.7,0,.9-.6,1.3-1.2,1.4l-.7.2-.2-.5.9-.4-.7-.6ZM488.1,638.1c0,0,.1,0,.2,0-.2,0-.5.1-.7,0h0s.6-.1.6-.1ZM490.4,601.2v-.4c.1-.2.2-.5,0-.7l-.2-.2h-.4c0,0-.3-.5-.3-.5,0,0,0-.1,0-.2,0,0,0,0,0,0l.7-.8-.8-.2c-.1,0-.2,0-.3-.2,0,0,0-.2,0-.3l3.6.9c.5.1,1,.2,1.5.2.3,0,.6,0,.8,0l4.9.7,3.4.4c.2,0,.5,0,.7,0,.9,0,1.7.1,2.4.5.7.3,1.7.9,2.4,1.3,0,0,0,0,0,0,0,.3.2.6.5.7.4.1.7.1,1,.1.5,0,.8,0,1.3.5h0c0,0,.1.1.1.1,0,0,.1,0,.3,0,0,0,0,0,0,0,0,0,0,.1,0,.2v.2c0,0,1.3.5,1.3.5,0,0,.2.3.3.4,0,0,0,.1-.2.4l-4.9,7.3-1.2,2c-.3.5-.6.9-1.1,1.2l-1.1-5.7-.5-2.2c-.2-.9-.4-1.9-1.3-2.5-.9-.7-1.8-.8-2.8-.8s-.3,0-.4,0c-.5,0-1.2,0-1.9,0-.2,0-.4,0-.6,0-.6,0-1.2-.2-2,.1-.1,0-.4,0-.6,0-.1,0-.2,0-.4,0l-3.6-.4c.2-1.4,0-1.8-.8-2.7ZM510.8,625.7c.3-.2.3-.6.2-.9-.1-.5-.4-.5-.5-.6-.4,0-.5-.1-.5,0,0,0-.1-.2,0-.5v-.3s-.9-.6-.9-.6c-.1-.7-.5-.9-.8-1-.4-.2-.8-.3-.9-1.7,0-.8-.2-1.4-.4-2.2,1.1-.8,2-1.6,2.7-2.7,1-1.6,2-3.1,3.2-4.7,0,0,0,0,0,0,0,.2,0,.5,0,.8l.2,3.2.7,6.4c0,.4.1.8.2,1.3.2,1.7.6,4.1-.2,4.7-.4.3-.9.4-1.4.3-.5,0-.9-.3-1.2-.7l-.5-.6.3-.2ZM496.8,618.4c.2,0,.6,0,1.7.3.1,0,.2,0,.4,0,0,0,0,0,.1,0,0,.3-.3.8-.4,1-.2,0-.5-.2-.6-.4v-.4s0-.3,0-.3h-.2c-.3-.3-.6-.2-.9-.1,0,0-.1,0-.2-.1,0,0,0,0,.1,0ZM503.7,628.3c.1,0,.4.2.4.3.2.5.2,1.1.1,1.8,0,.3,0,.6,0,.9l-.8-1.2c.1-.6.2-1.1.4-1.7ZM516.3,603.6c-.1,0-.2-.2-.3-.3,0,0,0,0,0,0,.2,0,.3-.2.4-.3l.3-.6c0,0,.3,0,.5,0l-.5,1c0,0,0,.2-.1.4,0,0-.2-.1-.2-.2ZM510.3,599s0,0,.1.1l-.3.8c-.7-.5-.7-.8-.6-1.1,0-.1,0-.4-.1-.6l.9.8ZM507.4,598.1s0,.1,0,.2c-.3,0-.7-.2-1-.3l.8.2h.3Z"/>
</svg>